<?xml version="1.0" encoding="UTF-8"?>
<svg xmlns="http://www.w3.org/2000/svg" xmlns:xlink="http://www.w3.org/1999/xlink" width="279pt" height="20pt" viewBox="0 0 279 20" version="1.1">
<defs>
<linearGradient id="linear0" gradientUnits="userSpaceOnUse" x1="0" y1="17.7" x2="489.04" y2="17.7" gradientTransform="matrix(0.564105,0,0,0.564972,1.564989,0)">
<stop offset="0" style="stop-color:rgb(56.470588%,80.784314%,63.137255%);stop-opacity:1;"/>
<stop offset="0.56" style="stop-color:rgb(23.529412%,74.509804%,78.823529%);stop-opacity:1;"/>
<stop offset="1" style="stop-color:rgb(0%,70.196078%,89.803922%);stop-opacity:1;"/>
</linearGradient>
</defs>
<g id="surface1">
<path style=" stroke:none;fill-rule:nonzero;fill:url(#linear0);" d="M 167.128906 0 L 172.152344 0 L 177.085938 13.105469 L 177.144531 13.105469 L 182.164062 0 L 186.875 0 L 178.636719 20 L 175.113281 20 Z M 193.417969 0 L 197.816406 0 L 197.816406 20 L 193.417969 20 Z M 205.941406 0 L 219.507812 0 L 219.507812 4.066406 L 210.339844 4.066406 L 210.339844 7.796875 L 219 7.796875 L 219 11.863281 L 210.339844 11.863281 L 210.339844 15.933594 L 220.015625 15.933594 L 220.015625 20 L 205.941406 20 Z M 236.964844 0 L 243.566406 0 C 245.101562 0.00390625 246.628906 0.191406 248.117188 0.566406 C 249.472656 0.875 250.753906 1.449219 251.886719 2.261719 C 252.972656 3.082031 253.847656 4.152344 254.4375 5.382812 C 255.117188 6.84375 255.453125 8.445312 255.414062 10.054688 C 255.441406 11.535156 255.125 13.003906 254.492188 14.339844 C 253.90625 15.542969 253.0625 16.601562 252.027344 17.445312 C 250.960938 18.296875 249.746094 18.941406 248.445312 19.351562 C 247.050781 19.792969 245.59375 20.011719 244.128906 20 L 236.960938 20 Z M 241.371094 15.933594 L 243.628906 15.933594 C 244.578125 15.9375 245.523438 15.835938 246.449219 15.621094 C 247.261719 15.433594 248.03125 15.082031 248.707031 14.585938 C 249.355469 14.09375 249.875 13.445312 250.210938 12.699219 C 250.605469 11.796875 250.800781 10.816406 250.777344 9.832031 C 250.792969 8.945312 250.597656 8.070312 250.210938 7.277344 C 249.863281 6.570312 249.359375 5.957031 248.734375 5.480469 C 248.074219 4.992188 247.332031 4.632812 246.542969 4.417969 C 245.6875 4.183594 244.800781 4.066406 243.910156 4.066406 L 241.316406 4.066406 Z M 261.753906 0 L 269.199219 0 C 270.074219 0 270.945312 0.0625 271.8125 0.179688 C 272.632812 0.289062 273.425781 0.539062 274.164062 0.914062 C 274.851562 1.273438 275.433594 1.804688 275.855469 2.457031 C 276.324219 3.25 276.550781 4.164062 276.503906 5.085938 C 276.546875 6.109375 276.210938 7.113281 275.5625 7.910156 C 274.898438 8.671875 274.03125 9.222656 273.0625 9.503906 L 273.0625 9.558594 C 273.6875 9.644531 274.292969 9.835938 274.855469 10.125 C 275.378906 10.382812 275.847656 10.738281 276.238281 11.167969 C 276.628906 11.597656 276.929688 12.101562 277.125 12.648438 C 277.335938 13.230469 277.441406 13.839844 277.433594 14.457031 C 277.46875 15.386719 277.234375 16.304688 276.757812 17.101562 C 276.3125 17.792969 275.714844 18.375 275.007812 18.796875 C 274.265625 19.242188 273.449219 19.558594 272.601562 19.730469 C 271.722656 19.914062 270.828125 20.007812 269.933594 20.011719 L 261.753906 20.011719 Z M 266.128906 7.996094 L 269.316406 7.996094 C 269.65625 7.992188 269.992188 7.957031 270.320312 7.882812 C 270.636719 7.8125 270.9375 7.6875 271.207031 7.515625 C 271.472656 7.34375 271.691406 7.113281 271.84375 6.835938 C 272.011719 6.523438 272.089844 6.171875 272.082031 5.820312 C 272.097656 5.457031 272.003906 5.101562 271.816406 4.789062 C 271.644531 4.523438 271.40625 4.304688 271.121094 4.152344 C 270.820312 3.992188 270.5 3.882812 270.164062 3.824219 C 269.820312 3.761719 269.46875 3.730469 269.121094 3.730469 L 266.128906 3.730469 Z M 266.128906 16.269531 L 270.078125 16.269531 C 270.425781 16.269531 270.773438 16.230469 271.113281 16.15625 C 271.449219 16.085938 271.765625 15.953125 272.054688 15.761719 C 272.335938 15.574219 272.574219 15.324219 272.746094 15.027344 C 272.941406 14.683594 273.03125 14.292969 273.011719 13.898438 C 273.027344 13.492188 272.90625 13.09375 272.664062 12.769531 C 272.421875 12.480469 272.117188 12.257812 271.769531 12.117188 C 271.410156 11.964844 271.03125 11.859375 270.644531 11.808594 C 270.261719 11.753906 269.875 11.726562 269.488281 11.722656 L 266.128906 11.722656 Z M 116.640625 19.960938 L 154.4375 19.960938 C 159.9375 19.960938 164.398438 15.492188 164.398438 9.984375 C 164.398438 4.472656 159.941406 0.00390625 154.4375 0 L 116.675781 0 C 111.171875 0.00390625 106.714844 4.472656 106.714844 9.984375 C 106.714844 15.492188 111.175781 19.960938 116.675781 19.960938 Z M 7.261719 3.898438 L 1.566406 3.898438 L 1.566406 0 L 17.359375 0 L 17.359375 3.898438 L 11.664062 3.898438 L 11.664062 20 L 7.261719 20 Z M 23.566406 0 L 27.964844 0 L 27.964844 7.457031 L 36.484375 7.457031 L 36.484375 0 L 40.882812 0 L 40.882812 20 L 36.484375 20 L 36.484375 11.355469 L 27.9375 11.355469 L 27.9375 20 L 23.566406 20 Z M 46.804688 0 L 60.34375 0 L 60.34375 4.066406 L 51.207031 4.066406 L 51.207031 7.796875 L 59.867188 7.796875 L 59.867188 11.863281 L 51.207031 11.863281 L 51.207031 15.933594 L 60.878906 15.933594 L 60.878906 20 L 46.777344 20 Z M 77.832031 0 L 84.488281 0 L 89.085938 13.050781 L 89.140625 13.050781 L 93.769531 0 L 100.394531 0 L 100.394531 20 L 95.996094 20 L 95.996094 4.660156 L 95.941406 4.660156 L 90.695312 20 L 87.335938 20 L 82.261719 4.660156 L 82.230469 4.660156 L 82.230469 20 L 77.832031 20 Z M 77.832031 0 "/>
</g>
</svg>
